# xmcd CD database file
#
# Track frame offsets:
#	150
#	16143
#	30274
#	43867
#	60752
#	75211
#	91011
#	103732
#	115910
#	130242
#	142512
#	154273
#	163983
#	185354
#	202267
#
# Disc length: 2929 seconds
#
# Revision: 0
# Processed by: cddbd v1.4PL0 Copyright (c) Steve Scherf et al.
# Submitted via: CDex 1.40Beta6
#
DISCID=b10b6f0f
DTITLE=Chris Isaak - Speak Off The Devil
DYEAR=1900
DGENRE=Blues
TTITLE0=Please
TTITLE1=Flying
TTITLE2=Walk Slow
TTITLE3=Breaking Apart
TTITLE4=This Time
TTITLE5=Speak Of The Devil
TTITLE6=Like The Way She Moves
TTITLE7=Wanderin
TTITLE8=Don't Get So Down On Your Self
TTITLE9=Black Flowers
TTITLE10=I'm Not Sleepy
TTITLE11=7 Lonely Nights
TTITLE12=Talkin 'bout A Home
TTITLE13=Super Magic
TTITLE14=Baby Did A Bad Bad Thing
EXTD=
EXTT0=
EXTT1=
EXTT2=
EXTT3=
EXTT4=
EXTT5=
EXTT6=
EXTT7=
EXTT8=
EXTT9=
EXTT10=
EXTT11=
EXTT12=
EXTT13=
EXTT14=
PLAYORDER=
